<svg width="92" height="52" viewBox="0 0 92 52" fill="none" xmlns="http://www.w3.org/2000/svg">
<path d="M17.028 36.948C17.628 37.98 17.928 38.976 17.928 39.936C17.928 40.152 17.904 40.344 17.856 40.512C17.832 40.704 17.796 40.896 17.748 41.088C17.34 41.04 16.908 41.004 16.452 40.98C16.02 40.956 15.564 40.944 15.084 40.944C14.508 40.944 13.92 40.956 13.32 40.98C12.744 41.028 12.096 41.088 11.376 41.16C10.656 41.232 9.852 41.328 8.964 41.448C8.076 41.568 7.044 41.724 5.868 41.916C5.316 41.724 4.764 41.34 4.212 40.764C3.66 40.212 3.144 39.54 2.664 38.748C2.904 38.22 3.204 37.572 3.564 36.804C3.924 36.012 4.344 35.064 4.824 33.96C5.304 32.832 5.832 31.524 6.408 30.036C7.008 28.524 7.644 26.784 8.316 24.816C8.748 23.52 9.12 22.38 9.432 21.396C9.744 20.412 10.02 19.464 10.26 18.552C10.524 17.616 10.776 16.644 11.016 15.636C11.256 14.628 11.52 13.464 11.808 12.144C12.768 12.336 13.596 12.696 14.292 13.224C15.012 13.728 15.696 14.46 16.344 15.42C16.152 15.732 15.9 16.236 15.588 16.932C15.276 17.628 14.904 18.48 14.472 19.488C14.064 20.472 13.608 21.6 13.104 22.872C12.6 24.12 12.072 25.464 11.52 26.904C10.992 28.32 10.476 29.652 9.972 30.9C9.468 32.148 9.012 33.276 8.604 34.284C8.22 35.292 7.908 36.156 7.668 36.876C7.428 37.596 7.308 38.136 7.308 38.496C7.692 38.472 8.04 38.448 8.352 38.424C8.664 38.4 8.988 38.364 9.324 38.316C9.66 38.244 10.02 38.172 10.404 38.1C10.812 38.004 11.292 37.884 11.844 37.74C12.324 37.62 12.768 37.524 13.176 37.452C13.584 37.356 13.98 37.284 14.364 37.236C14.772 37.164 15.18 37.116 15.588 37.092C16.02 37.044 16.5 36.996 17.028 36.948ZM37.0718 12.792C37.5278 12.984 37.9958 13.236 38.4758 13.548C38.9558 13.836 39.3998 14.136 39.8078 14.448C40.2158 14.76 40.5518 15.072 40.8158 15.384C41.1038 15.672 41.2598 15.912 41.2838 16.104C40.8758 16.008 40.4678 15.948 40.0598 15.924C39.6518 15.876 39.2798 15.852 38.9438 15.852C37.8638 15.852 36.7838 16.116 35.7038 16.644C34.6478 17.172 33.6398 17.892 32.6798 18.804C31.7198 19.716 30.8318 20.784 30.0158 22.008C29.1998 23.232 28.4918 24.54 27.8918 25.932C27.3158 27.324 26.8598 28.764 26.5238 30.252C26.1878 31.74 26.0198 33.204 26.0198 34.644C26.0198 36.516 26.3318 37.908 26.9558 38.82C27.5798 39.732 28.4918 40.188 29.6918 40.188C30.2678 40.188 30.8918 40.068 31.5638 39.828C32.2358 39.612 32.9198 39.3 33.6158 38.892C34.3118 38.484 34.9958 37.992 35.6678 37.416C36.3398 36.84 36.9638 36.204 37.5398 35.508C38.3798 34.5 39.1358 33.36 39.8078 32.088C40.4798 30.792 41.0438 29.424 41.4998 27.984C41.9798 26.544 42.3398 25.068 42.5798 23.556C42.8438 22.02 42.9758 20.52 42.9758 19.056C42.9758 18.48 42.9638 18 42.9398 17.616C42.9158 17.208 42.8798 16.872 42.8318 16.608C42.8078 16.32 42.7838 16.092 42.7598 15.924C42.7358 15.756 42.7118 15.612 42.6878 15.492C42.9758 15.636 43.2878 15.816 43.6238 16.032C43.9838 16.224 44.3078 16.524 44.5958 16.932C44.9078 17.316 45.1598 17.832 45.3518 18.48C45.5678 19.128 45.6758 19.968 45.6758 21C45.6758 22.68 45.4718 24.336 45.0638 25.968C44.6798 27.576 44.1278 29.112 43.4078 30.576C42.7118 32.04 41.8838 33.408 40.9238 34.68C39.9638 35.952 38.9318 37.068 37.8278 38.028C36.3878 39.3 34.8518 40.284 33.2198 40.98C31.5878 41.676 30.0158 42.024 28.5038 42.024C26.2958 42.024 24.6038 41.316 23.4278 39.9C22.2758 38.508 21.6998 36.444 21.6998 33.708C21.6998 32.244 21.8558 30.696 22.1678 29.064C22.5038 27.432 22.9598 25.824 23.5358 24.24C24.1358 22.656 24.8438 21.156 25.6598 19.74C26.4758 18.3 27.3638 17.04 28.3238 15.96C29.3078 14.856 30.3518 13.98 31.4558 13.332C32.5838 12.684 33.7358 12.36 34.9118 12.36C35.2958 12.36 35.6558 12.396 35.9918 12.468C36.3278 12.516 36.6878 12.624 37.0718 12.792ZM51.8968 17.184C50.9368 17.184 50.1928 16.92 49.6648 16.392C49.1608 15.84 48.9088 15.18 48.9088 14.412C48.9088 14.22 48.9328 13.992 48.9808 13.728C49.0528 13.464 49.1368 13.236 49.2328 13.044C49.5448 13.188 50.0008 13.296 50.6008 13.368C51.2248 13.416 51.9448 13.44 52.7608 13.44C53.9848 13.44 55.3648 13.392 56.9008 13.296C58.4608 13.176 59.9488 13.056 61.3648 12.936C62.7808 12.816 64.0288 12.708 65.1088 12.612C66.1888 12.492 66.8848 12.432 67.1968 12.432C68.0848 12.432 68.7208 12.768 69.1048 13.44C69.5128 14.088 69.8128 14.964 70.0048 16.068C69.3808 16.02 68.7568 15.984 68.1328 15.96C67.5328 15.912 67.0168 15.888 66.5848 15.888C65.8168 15.888 65.0368 15.912 64.2448 15.96C63.4768 16.008 62.6968 16.08 61.9048 16.176C61.5688 16.872 61.1968 17.7 60.7888 18.66C60.3808 19.596 59.9728 20.58 59.5648 21.612C59.1808 22.644 58.8088 23.676 58.4488 24.708C58.0888 25.716 57.7768 26.628 57.5128 27.444C56.9848 29.028 56.5168 30.492 56.1088 31.836C55.7248 33.18 55.3768 34.44 55.0648 35.616C54.7768 36.768 54.5248 37.872 54.3088 38.928C54.0928 39.984 53.9008 41.016 53.7328 42.024C52.1248 41.784 50.7808 40.776 49.7008 39C49.8928 38.256 50.1208 37.452 50.3848 36.588C50.6728 35.7 50.9968 34.704 51.3568 33.6C51.7408 32.472 52.1848 31.2 52.6888 29.784C53.1928 28.368 53.7688 26.76 54.4168 24.96C54.6568 24.288 54.9088 23.592 55.1728 22.872C55.4368 22.128 55.6888 21.396 55.9288 20.676C56.1928 19.956 56.4208 19.26 56.6128 18.588C56.8288 17.916 57.0088 17.304 57.1528 16.752C56.1448 16.872 55.1848 16.98 54.2728 17.076C53.3848 17.148 52.5928 17.184 51.8968 17.184ZM73.0609 17.184C72.1009 17.184 71.3569 16.92 70.8289 16.392C70.3249 15.84 70.0729 15.18 70.0729 14.412C70.0729 14.22 70.0969 13.992 70.1449 13.728C70.2169 13.464 70.3009 13.236 70.3969 13.044C70.7089 13.188 71.1649 13.296 71.7649 13.368C72.3889 13.416 73.1089 13.44 73.9249 13.44C75.1489 13.44 76.5289 13.392 78.0649 13.296C79.6249 13.176 81.1129 13.056 82.5289 12.936C83.9449 12.816 85.1929 12.708 86.2729 12.612C87.3529 12.492 88.0489 12.432 88.3609 12.432C89.2489 12.432 89.8849 12.768 90.2689 13.44C90.6769 14.088 90.9769 14.964 91.1689 16.068C90.5449 16.02 89.9209 15.984 89.2969 15.96C88.6969 15.912 88.1809 15.888 87.7489 15.888C86.9809 15.888 86.2009 15.912 85.4089 15.96C84.6409 16.008 83.8609 16.08 83.0689 16.176C82.7329 16.872 82.3609 17.7 81.9529 18.66C81.5449 19.596 81.1369 20.58 80.7289 21.612C80.3449 22.644 79.9729 23.676 79.6129 24.708C79.2529 25.716 78.9409 26.628 78.6769 27.444C78.1489 29.028 77.6809 30.492 77.2729 31.836C76.8889 33.18 76.5409 34.44 76.2289 35.616C75.9409 36.768 75.6889 37.872 75.4729 38.928C75.2569 39.984 75.0649 41.016 74.8969 42.024C73.2889 41.784 71.9449 40.776 70.8649 39C71.0569 38.256 71.2849 37.452 71.5489 36.588C71.8369 35.7 72.1609 34.704 72.5209 33.6C72.9049 32.472 73.3489 31.2 73.8529 29.784C74.3569 28.368 74.9329 26.76 75.5809 24.96C75.8209 24.288 76.0729 23.592 76.3369 22.872C76.6009 22.128 76.8529 21.396 77.0929 20.676C77.3569 19.956 77.5849 19.26 77.7769 18.588C77.9929 17.916 78.1729 17.304 78.3169 16.752C77.3089 16.872 76.3489 16.98 75.4369 17.076C74.5489 17.148 73.7569 17.184 73.0609 17.184Z" fill="white"/>
<path d="M33 44C24.1733 44 17 36.8267 17 28C17 19.1733 24.1733 12 33 12C41.8267 12 49 19.1733 49 28C49 36.8267 41.8267 44 33 44Z" fill="url(#paint0_linear_305_10)"/>
<path d="M35.898 26.61C36.507 26.61 36.9903 26.1 36.9903 25.48V25.09C36.9903 23.57 35.7916 22.33 34.3222 22.33H33.5875V21.13C33.5875 20.5 33.0945 20 32.4952 20C31.8958 20 31.4028 20.51 31.4028 21.13V22.33H30.6681C29.1987 22.33 28 23.57 28 25.09V26.87C28 28.39 29.1987 29.63 30.6681 29.63H34.3222C34.5832 29.63 34.7959 29.85 34.7959 30.13V31.91C34.7959 32.18 34.5832 32.41 34.3222 32.41H30.6681C30.4071 32.41 30.1944 32.19 30.1944 31.91V31.52C30.1944 30.89 29.7014 30.39 29.102 30.39C28.5027 30.39 28.0097 30.9 28.0097 31.52V31.91C28.0097 33.43 29.2084 34.67 30.6778 34.67H31.4125V35.87C31.4125 36.5 31.9055 37 32.5048 37C33.1042 37 33.5972 36.49 33.5972 35.87V34.67H34.3319C35.8013 34.67 37 33.43 37 31.91V30.13C37 28.61 35.8013 27.37 34.3319 27.37H30.6778C30.4168 27.37 30.2041 27.15 30.2041 26.87V25.09C30.2041 24.82 30.4168 24.59 30.6778 24.59H34.3319C34.5929 24.59 34.8056 24.81 34.8056 25.09V25.48C34.7959 26.11 35.2889 26.61 35.898 26.61Z" fill="white"/>
<defs>
<linearGradient id="paint0_linear_305_10" x1="14.6137" y1="46.3863" x2="44.5113" y2="16.4887" gradientUnits="userSpaceOnUse">
<stop stop-color="#F3AA0F"/>
<stop offset="1" stop-color="#FED46E"/>
</linearGradient>
</defs>
</svg>
